<?xml version="1.0" encoding="utf-8"?>
<!-- Generator: Adobe Illustrator 18.0.0, SVG Export Plug-In . SVG Version: 6.00 Build 0)  -->
<!DOCTYPE svg PUBLIC "-//W3C//DTD SVG 1.1//EN" "http://www.w3.org/Graphics/SVG/1.1/DTD/svg11.dtd">
<svg version="1.1" id="Calque_1" xmlns="http://www.w3.org/2000/svg" xmlns:xlink="http://www.w3.org/1999/xlink" x="0px" y="0px"
	 viewBox="0 0 52 62" enable-background="new 0 0 52 62" xml:space="preserve">
<path fill="#658A2D" d="M41.9,25.8c1.3-1.6,2.1-3.6,2.1-5.9c0-5.2-4.2-9.5-9.5-9.5c0-5.2-4.2-9.5-9.5-9.5s-9.5,4.2-9.5,9.5
	c-5.2,0-9.5,4.2-9.5,9.5c0,2.2,0.8,4.3,2.1,5.9c-4,1.9-6.8,6-6.8,10.7c0,6.5,5.3,11.8,11.8,11.8h9.5V61h4.7V48.4h9.5
	c6.5,0,11.8-5.3,11.8-11.8C48.7,31.8,45.9,27.7,41.9,25.8z"/>
</svg>
